<?xml version="1.0" standalone="no"?>
<!DOCTYPE svg PUBLIC "-//W3C//DTD SVG 20010904//EN"
 "http://www.w3.org/TR/2001/REC-SVG-20010904/DTD/svg10.dtd">
<svg version="1.0" xmlns="http://www.w3.org/2000/svg"
 width="207.000000pt" height="207.000000pt" viewBox="0 0 207.000000 207.000000"
 preserveAspectRatio="xMidYMid meet">
<metadata>
Created by potrace 1.14, written by Peter Selinger 2001-2017
</metadata>
<g transform="translate(0.000000,207.000000) scale(0.100000,-0.100000)"
fill="#000000" stroke="none">
<path d="M12 1770 c-5 -3 -8 -335 -8 -739 1 -617 3 -735 15 -739 9 -3 11 0 6
8 -6 9 -4 11 6 5 18 -12 319 -13 343 -2 13 6 16 6 12 -2 -8 -12 54 -8 75 5 8
4 9 3 5 -4 -8 -13 20 -12 41 1 6 4 14 3 17 -2 7 -10 25 -9 42 2 6 3 14 3 18 0
12 -13 48 -14 40 -1 -5 7 -3 8 7 3 18 -12 199 -13 223 -2 13 6 16 6 12 -2 -8
-12 54 -8 75 5 8 4 9 3 5 -4 -8 -13 20 -12 41 1 6 4 14 3 17 -2 7 -10 25 -9
42 2 6 3 14 3 18 0 12 -12 48 -14 40 -2 -4 8 -1 8 12 2 22 -10 174 -10 191 0
6 4 14 3 17 -2 7 -10 25 -9 42 2 6 3 14 3 18 0 12 -12 48 -14 40 -2 -4 8 -1 8
12 2 24 -11 205 -10 223 2 10 5 12 4 7 -4 -8 -12 53 -9 75 5 8 4 9 3 5 -4 -8
-13 20 -12 41 1 6 4 14 3 17 -2 7 -10 25 -9 42 2 6 3 14 3 18 0 12 -13 48 -14
40 -1 -5 7 -3 8 6 3 7 -4 42 -9 77 -9 53 -2 66 1 74 17 7 13 7 23 -2 33 -6 8
-7 14 -2 14 8 0 11 75 3 90 -1 3 -1 10 0 15 7 30 6 136 -1 141 -5 3 -6 10 -3
16 11 18 13 138 2 144 -5 3 -4 12 3 20 9 11 8 14 -2 14 -9 0 -10 3 -4 8 13 9
17 70 4 77 -5 4 -6 11 -2 18 10 17 12 91 1 104 -5 6 -5 14 0 17 11 6 9 36 -3
55 -5 9 -4 12 3 7 12 -7 11 32 -3 53 -5 9 -4 12 2 8 13 -8 11 52 -2 73 -5 8
-4 11 2 7 12 -8 11 72 -2 93 -5 8 -4 11 2 7 12 -8 12 41 0 61 -5 6 -4 12 1 12
10 0 10 70 -1 87 -4 6 -3 14 1 17 11 6 9 36 -3 55 -5 9 -4 12 3 7 12 -7 11 32
-3 53 -5 9 -4 12 2 8 13 -8 11 52 -2 73 -5 8 -4 11 2 7 7 -4 10 5 9 23 0 17
-4 30 -9 30 -4 0 -6 4 -3 8 5 9 -2030 11 -2042 2z"/>
</g>
</svg>
